<svg width="8" height="8" viewBox="0 0 8 8" fill="none" xmlns="http://www.w3.org/2000/svg">
<path d="M6.65472 0.464293C6.39828 0.207848 5.98258 0.207848 5.72614 0.464293L0.464235 5.7262C0.207789 5.98264 0.207789 6.39834 0.464234 6.65478C0.72068 6.91123 1.13638 6.91123 1.39282 6.65478L6.65472 1.39288C6.91117 1.13643 6.91117 0.720738 6.65472 0.464293Z" fill="#969696"/>
<path d="M6.65466 5.7262L1.39276 0.464293C1.13631 0.207848 0.720619 0.207848 0.464174 0.464293C0.207729 0.720738 0.207728 1.13643 0.464174 1.39288L5.72608 6.65478C5.98252 6.91123 6.39822 6.91123 6.65466 6.65478C6.91111 6.39834 6.91111 5.98264 6.65466 5.7262Z" fill="#969696"/>
</svg>
