<svg width="66" height="72" viewBox="0 0 66 72" fill="none" xmlns="http://www.w3.org/2000/svg">
<path d="M33.0007 66.2819C31.8374 66.2819 30.8943 65.3388 30.8943 64.1755V54.0647C30.8943 52.9014 31.8374 51.9583 33.0007 51.9583C34.164 51.9583 35.1071 52.9014 35.1071 54.0647V64.1755C35.1071 65.3388 34.164 66.2819 33.0007 66.2819Z" fill="#0052BE"/>
<path d="M33.0005 51.9583V66.2819C34.1638 66.2819 35.1069 65.3388 35.1069 64.1755V54.0647C35.1069 52.9014 34.1638 51.9583 33.0005 51.9583Z" fill="#00337A"/>
<path d="M33.0007 54.7669C20.2244 54.7669 9.83008 44.3725 9.83008 31.5963C9.83008 30.433 10.7732 29.4899 11.9365 29.4899H54.0648C55.2281 29.4899 56.1713 30.433 56.1713 31.5963C56.1713 44.3725 45.7771 54.7669 33.0007 54.7669ZM14.1592 33.7027C15.2106 43.1682 23.2595 50.554 33.0007 50.554C42.742 50.554 50.7909 43.1682 51.8421 33.7027H14.1592Z" fill="#2681FF"/>
<path d="M54.0647 29.4899H33.0005V33.7027H51.842C50.7907 43.1682 42.7418 50.554 33.0005 50.554V54.7669C45.7768 54.7669 56.1711 44.3725 56.1711 31.5963C56.1711 30.433 55.228 29.4899 54.0647 29.4899Z" fill="#0052BE"/>
<path d="M47.7459 16.8513L45.6395 14.7449L47.5948 12.6385C46.882 7.67747 43.6911 3.50648 39.3203 1.42464L37.2139 3.37027L35.1074 0.1511C34.4192 0.0522391 33.7162 0 33.001 0C32.2858 0 31.5828 0.0522391 30.8946 0.1511L28.7882 3.37027L26.6818 1.42464C22.311 3.50648 19.12 7.67747 18.4072 12.6385L19.6604 14.7449L18.2561 16.8513V21.0642L19.6604 23.1706L18.2561 25.277V31.5963H47.7459V25.277L45.6395 23.1706L47.7459 21.0642V16.8513Z" fill="#BCEAF9"/>
<path d="M47.7454 16.8513L45.639 14.7449L47.5943 12.6385C46.8815 7.67747 43.6906 3.50648 39.3197 1.42464L37.2133 3.37027L35.1069 0.1511C34.4187 0.0522391 33.7157 0 33.0005 0V31.5963H47.7454V25.277L45.639 23.1706L47.7454 21.0642V16.8513Z" fill="#8BB9FF"/>
<path d="M40.022 23.1706C40.022 24.3339 40.9651 25.277 42.1284 25.277H47.7455V21.0642H42.1284C40.9651 21.0642 40.022 22.0073 40.022 23.1706Z" fill="#4793FF"/>
<path d="M40.022 14.7448C40.022 15.9081 40.9651 16.8513 42.1284 16.8513H47.7455V14.7448C47.7455 14.0296 47.6933 13.3267 47.5944 12.6384H42.1284C40.9651 12.6384 40.022 13.5815 40.022 14.7448Z" fill="#4793FF"/>
<path d="M26.6813 23.1706C26.6813 22.0073 25.7382 21.0642 24.5749 21.0642H18.2556V25.277H24.5749C25.7382 25.277 26.6813 24.3339 26.6813 23.1706Z" fill="#8BB9FF"/>
<path d="M26.6813 14.7448C26.6813 13.5815 25.7382 12.6384 24.5749 12.6384H18.4067C18.3079 13.3267 18.2556 14.0296 18.2556 14.7448V16.8513H24.5749C25.7382 16.8513 26.6813 15.9081 26.6813 14.7448Z" fill="#8BB9FF"/>
<path d="M37.2134 7.72355C38.3767 7.72355 39.3198 6.78044 39.3198 5.61714V1.42466C38.0097 0.800602 36.5938 0.364854 35.1069 0.151123V5.61714C35.1069 6.78044 36.05 7.72355 37.2134 7.72355Z" fill="#4793FF"/>
<path d="M28.7876 7.72355C29.9509 7.72355 30.894 6.78044 30.894 5.61714V0.151123C29.4071 0.364714 27.9912 0.800602 26.6812 1.42466V5.61714C26.6812 6.78044 27.6243 7.72355 28.7876 7.72355Z" fill="#8BB9FF"/>
<path d="M45.639 71.8991H20.362C19.1987 71.8991 18.2556 70.9559 18.2556 69.7926C18.2556 66.3026 21.0848 63.4734 24.5749 63.4734H41.4262C44.9163 63.4734 47.7455 66.3026 47.7455 69.7926C47.7455 70.9559 46.8023 71.8991 45.639 71.8991Z" fill="#BCEAF9"/>
<path d="M18.2556 31.5963C18.2556 39.7267 24.8702 46.3412 33.0005 46.3412C41.1309 46.3412 47.7455 39.7267 47.7455 31.5963H18.2556Z" fill="#8BB9FF"/>
<path d="M33.0005 31.5963V46.3412C41.1308 46.3412 47.7454 39.7267 47.7454 31.5963H33.0005Z" fill="#4793FF"/>
<path d="M60.1986 25.7882C59.6595 25.7882 59.1204 25.5826 58.7093 25.1712C57.8866 24.3485 57.8866 23.0149 58.7093 22.1923C62.8156 18.0857 62.8156 11.404 58.7093 7.29765C57.8866 6.47502 57.8866 5.14138 58.7093 4.31875C59.5317 3.49613 60.8655 3.49613 61.6881 4.31875C67.4371 10.0677 67.4371 19.4222 61.6881 25.1712C61.2768 25.5825 60.7377 25.7882 60.1986 25.7882V25.7882Z" fill="#E2DFF4"/>
<path d="M54.2409 19.8303C53.7018 19.8303 53.1627 19.6247 52.7515 19.2132C51.9289 18.3906 51.9289 17.057 52.7515 16.2343C53.1493 15.8365 53.3685 15.3075 53.3685 14.7448C53.3685 14.1821 53.1493 13.6533 52.7515 13.2553C51.9289 12.4327 51.9289 11.099 52.7515 10.2764C53.574 9.45377 54.9078 9.45377 55.7304 10.2764C58.1943 12.7402 58.1943 16.7493 55.7304 19.2132C55.3191 19.6247 54.78 19.8303 54.2409 19.8303V19.8303Z" fill="#E2DFF4"/>
<path d="M5.80248 25.7882C5.26337 25.7882 4.72427 25.5826 4.3131 25.1712C1.53165 22.39 0 18.6872 0 14.745C0 10.8027 1.53165 7.09992 4.31296 4.31875C5.13559 3.49613 6.46923 3.49613 7.29185 4.31875C8.11448 5.14138 8.11448 6.47502 7.29185 7.29765C5.30635 9.28316 4.21283 11.928 4.21283 14.745C4.21283 17.5619 5.30635 20.2068 7.29185 22.1923C8.11448 23.0149 8.11448 24.3485 7.29185 25.1712C6.88068 25.5825 6.34158 25.7882 5.80248 25.7882V25.7882Z" fill="#F9F9F9"/>
<path d="M11.7604 19.8303C11.2213 19.8303 10.6822 19.6247 10.2711 19.2132C7.80711 16.7494 7.80711 12.7403 10.2711 10.2764C11.0935 9.45377 12.4273 9.45377 13.25 10.2764C14.0726 11.099 14.0726 12.4327 13.25 13.2553C12.8521 13.6531 12.6329 14.1821 12.6329 14.7448C12.6329 15.3075 12.8521 15.8364 13.25 16.2343C14.0726 17.057 14.0726 18.3906 13.25 19.2132C12.8386 19.6247 12.2995 19.8303 11.7604 19.8303Z" fill="#F9F9F9"/>
<path d="M60.1986 25.7882C59.6595 25.7882 59.1204 25.5826 58.7093 25.1712C57.8866 24.3485 57.8866 23.0149 58.7093 22.1923C62.8156 18.0857 62.8156 11.404 58.7093 7.29765C57.8866 6.47502 57.8866 5.14138 58.7093 4.31875C59.5317 3.49613 60.8655 3.49613 61.6881 4.31875C67.4371 10.0677 67.4371 19.4222 61.6881 25.1712C61.2768 25.5825 60.7377 25.7882 60.1986 25.7882V25.7882Z" fill="#E2DFF4"/>
<path d="M54.2409 19.8303C53.7018 19.8303 53.1627 19.6247 52.7515 19.2132C51.9289 18.3906 51.9289 17.057 52.7515 16.2343C53.1493 15.8365 53.3685 15.3075 53.3685 14.7448C53.3685 14.1821 53.1493 13.6533 52.7515 13.2553C51.9289 12.4327 51.9289 11.099 52.7515 10.2764C53.574 9.45377 54.9078 9.45377 55.7304 10.2764C58.1943 12.7402 58.1943 16.7493 55.7304 19.2132C55.3191 19.6247 54.78 19.8303 54.2409 19.8303V19.8303Z" fill="#E2DFF4"/>
<path d="M5.80248 25.7882C5.26337 25.7882 4.72427 25.5826 4.3131 25.1712C1.53165 22.39 0 18.6872 0 14.745C0 10.8027 1.53165 7.09992 4.31296 4.31875C5.13559 3.49613 6.46923 3.49613 7.29185 4.31875C8.11448 5.14138 8.11448 6.47502 7.29185 7.29765C5.30635 9.28316 4.21283 11.928 4.21283 14.745C4.21283 17.5619 5.30635 20.2068 7.29185 22.1923C8.11448 23.0149 8.11448 24.3485 7.29185 25.1712C6.88068 25.5825 6.34158 25.7882 5.80248 25.7882V25.7882Z" fill="#F9F9F9"/>
<path d="M11.7604 19.8303C11.2213 19.8303 10.6822 19.6247 10.2711 19.2132C7.80711 16.7494 7.80711 12.7403 10.2711 10.2764C11.0935 9.45377 12.4273 9.45377 13.25 10.2764C14.0726 11.099 14.0726 12.4327 13.25 13.2553C12.8521 13.6531 12.6329 14.1821 12.6329 14.7448C12.6329 15.3075 12.8521 15.8364 13.25 16.2343C14.0726 17.057 14.0726 18.3906 13.25 19.2132C12.8386 19.6247 12.2995 19.8303 11.7604 19.8303Z" fill="#F9F9F9"/>
<path d="M41.4262 63.4734H33.0005V71.8991H45.639C46.8023 71.8991 47.7454 70.9559 47.7454 69.7926C47.7454 66.3026 44.9162 63.4734 41.4262 63.4734Z" fill="#8BB9FF"/>
</svg>
