<svg width="22" height="22" viewBox="0 0 22 22" fill="none" xmlns="http://www.w3.org/2000/svg">
<path fill-rule="evenodd" clip-rule="evenodd" d="M14.0124 8.40742C14.0124 11.5029 11.5029 14.0124 8.40742 14.0124C5.31189 14.0124 2.80247 11.5029 2.80247 8.40742C2.80247 5.31189 5.31189 2.80247 8.40742 2.80247C11.5029 2.80247 14.0124 5.31189 14.0124 8.40742ZM13.2788 15.2605C11.9045 16.2392 10.2232 16.8148 8.40742 16.8148C3.76413 16.8148 0 13.0507 0 8.40742C0 3.76413 3.76413 0 8.40742 0C13.0507 0 16.8148 3.76413 16.8148 8.40742C16.8148 10.2232 16.2392 11.9045 15.2605 13.2789L15.5836 13.602L21.5896 19.608C22.1368 20.1552 22.1368 21.0424 21.5896 21.5896C21.0424 22.1368 20.1552 22.1368 19.6079 21.5896L13.6019 15.5836L13.2788 15.2605Z" fill="#5CB7C3"/>
</svg>
