<svg width="16" height="16" viewBox="0 -1 14 14" fill="none" xmlns="http://www.w3.org/2000/svg">
<g clip-path="url(#clip0)">
<path d="M4.5661 2.2757C4.64051 2.39512 4.60404 2.55227 4.48458 2.62672C4.36516 2.70113 4.20801 2.66466 4.13357 2.5452C4.13059 2.54041 4.12776 2.53551 4.1251 2.5305L3.4069 1.2873C3.33249 1.16788 3.36896 1.01073 3.48841 0.936285C3.60783 0.861875 3.76498 0.898345 3.83943 1.0178C3.8424 1.0226 3.84524 1.0275 3.84794 1.0325L4.5661 2.2757ZM2.5305 4.1251C2.64992 4.19951 2.68642 4.35666 2.61201 4.47612C2.54107 4.58997 2.39403 4.62931 2.2757 4.5661L1.0311 3.8479C0.91168 3.77349 0.875175 3.61634 0.949585 3.49689C1.02053 3.38303 1.16757 3.34369 1.2859 3.4069L2.5305 4.1251ZM1.6905 6.7431C1.83162 6.7431 1.946 6.85748 1.946 6.9986C1.946 7.13972 1.83162 7.2541 1.6905 7.2541H0.2555C0.11438 7.2541 0 7.13972 0 6.9986C0 6.85748 0.11438 6.7431 0.2555 6.7431H1.6905ZM2.2743 9.4311C2.39372 9.35669 2.55087 9.39316 2.62532 9.51262C2.69973 9.63204 2.66326 9.78918 2.5438 9.86363C2.53901 9.8666 2.53411 9.86944 2.5291 9.8721L1.2873 10.5917C1.16788 10.6661 1.01073 10.6296 0.936285 10.5102C0.861875 10.3908 0.898345 10.2336 1.0178 10.1592C1.0226 10.1562 1.0275 10.1534 1.0325 10.1507L2.2743 9.4311ZM4.1251 11.4681C4.19951 11.3487 4.35666 11.3122 4.47612 11.3866C4.58997 11.4575 4.62931 11.6046 4.5661 11.7229L3.8479 12.9675C3.78161 13.0916 3.62722 13.1385 3.50311 13.0722C3.379 13.0059 3.3321 12.8515 3.39843 12.7274C3.40109 12.7224 3.40393 12.7175 3.40694 12.7127L4.1251 11.4681ZM6.7431 12.3081C6.7431 12.167 6.85748 12.0526 6.9986 12.0526C7.13972 12.0526 7.2541 12.167 7.2541 12.3081V13.7445C7.2541 13.8856 7.13972 14 6.9986 14C6.85748 14 6.7431 13.8856 6.7431 13.7445V12.3081ZM9.4311 11.7243C9.36481 11.6002 9.41167 11.4458 9.53578 11.3795C9.65408 11.3163 9.80115 11.3557 9.8721 11.4695L10.5903 12.7141C10.6647 12.8335 10.6282 12.9907 10.5088 13.0651C10.3893 13.1396 10.2322 13.1031 10.1578 12.9836C10.1548 12.9788 10.152 12.9739 10.1493 12.9689L9.4311 11.7243ZM11.4681 9.8735C11.344 9.80721 11.2971 9.65282 11.3634 9.52871C11.4297 9.4046 11.5841 9.3577 11.7082 9.42403C11.7132 9.42669 11.7181 9.42953 11.7229 9.43254L12.9675 10.1507C13.0916 10.217 13.1385 10.3714 13.0722 10.4955C13.0059 10.6196 12.8515 10.6665 12.7274 10.6002C12.7224 10.5975 12.7175 10.5947 12.7127 10.5917L11.4681 9.8735ZM12.3081 7.2555C12.167 7.2555 12.0526 7.14112 12.0526 7C12.0526 6.85888 12.167 6.7445 12.3081 6.7445H13.7445C13.8856 6.7445 14 6.85888 14 7C14 7.14112 13.8856 7.2555 13.7445 7.2555H12.3081ZM11.7243 4.5675C11.6049 4.64191 11.4477 4.60544 11.3733 4.48599C11.2989 4.36657 11.3353 4.20941 11.4548 4.13497C11.4596 4.13199 11.4645 4.12916 11.4695 4.12647L12.7141 3.40826C12.8382 3.34197 12.9926 3.38884 13.0589 3.51295C13.1221 3.63125 13.0827 3.77832 12.9689 3.84926L11.7243 4.5675ZM9.8735 2.5305C9.80721 2.65461 9.65282 2.70151 9.52871 2.63519C9.4046 2.5689 9.3577 2.41451 9.42403 2.2904C9.42669 2.2854 9.42953 2.28049 9.43254 2.2757L10.1507 1.0311C10.217 0.90699 10.3714 0.86009 10.4955 0.926415C10.6196 0.992705 10.6665 1.14709 10.6002 1.2712C10.5975 1.2762 10.5947 1.28111 10.5917 1.2859L9.8735 2.5305ZM7.2555 1.6905C7.2555 1.83162 7.14112 1.946 7 1.946C6.85888 1.946 6.7445 1.83162 6.7445 1.6905V0.2555C6.7445 0.11438 6.85888 0 7 0C7.14112 0 7.2555 0.11438 7.2555 0.2555V1.6905ZM6.9993 3.4993C8.93228 3.4993 10.4993 5.06632 10.4993 6.9993C10.4993 8.93228 8.93228 10.4993 6.9993 10.4993C5.06632 10.4993 3.4993 8.93228 3.4993 6.9993C3.4993 5.06632 5.06632 3.4993 6.9993 3.4993Z" fill="#F8F8F8"/>
</g>
<defs>
<clipPath id="clip0">
<rect width="14" height="14" fill="white"/>
</clipPath>
</defs>
</svg>
